<svg width="144" height="48" viewBox="0 0 144 48" fill="none" xmlns="http://www.w3.org/2000/svg">
<g clip-path="url(#clip0_2_605)">
<path d="M132.533 0.000156H11.4737C11.0325 0.000156 10.5965 0.000156 10.1564 0.002556C9.78796 0.004956 9.42248 0.011928 9.05053 0.017796C8.24249 0.0272782 7.43634 0.0981675 6.6391 0.229848C5.84298 0.364395 5.0718 0.618055 4.35165 0.982248C3.63237 1.34952 2.97514 1.82676 2.40381 2.39664C1.82948 2.96492 1.35074 3.62178 0.98598 4.34195C0.620216 5.06069 0.366595 5.83088 0.233875 6.62593C0.0998928 7.41998 0.0277959 8.22318 0.018231 9.02833C0.00706377 9.39625 0.00588447 9.7654 0 10.1334V37.8705C0.00588447 38.2431 0.00706377 38.604 0.018231 38.9768C0.0277988 39.7819 0.0998957 40.585 0.233875 41.379C0.366228 42.1745 0.619865 42.9452 0.98598 43.6642C1.35057 44.382 1.82939 45.0362 2.40381 45.6014C2.97298 46.1738 3.63063 46.6513 4.35165 47.0158C5.0718 47.381 5.8429 47.6361 6.6391 47.7728C7.43648 47.9034 8.24254 47.9743 9.05053 47.9849C9.42248 47.9931 9.78796 47.9978 10.1564 47.9978C10.5965 48.0002 11.0325 48.0002 11.4737 48.0002H132.533C132.965 48.0002 133.405 48.0002 133.837 47.9978C134.204 47.9978 134.58 47.9931 134.947 47.9849C135.753 47.9749 136.558 47.9039 137.353 47.7728C138.152 47.6352 138.926 47.3801 139.65 47.0158C140.37 46.6511 141.027 46.1736 141.596 45.6014C142.169 45.034 142.648 44.3803 143.018 43.6642C143.381 42.9447 143.632 42.1741 143.763 41.379C143.897 40.5849 143.971 39.7819 143.986 38.9768C143.991 38.604 143.991 38.2431 143.991 37.8705C144 37.4345 144 37.001 144 36.5579V11.4435C144 11.0041 144 10.5681 143.991 10.1334C143.991 9.7654 143.991 9.39625 143.986 9.02828C143.971 8.22306 143.897 7.42004 143.763 6.62588C143.632 5.83129 143.381 5.06116 143.018 4.3419C142.275 2.89839 141.097 1.72339 139.65 0.98214C138.926 0.618837 138.152 0.365244 137.353 0.22974C136.558 0.0974793 135.753 0.0265653 134.947 0.017628C134.58 0.011772 134.204 0.00474 133.837 0.0024C133.405 0 132.965 0 132.533 0V0.000156Z" fill="#A6A6A6"/>
<path d="M10.1625 46.9501C9.79583 46.9501 9.43804 46.9454 9.07428 46.9372C8.32071 46.9274 7.5689 46.862 6.82501 46.7415C6.13138 46.6224 5.45944 46.4008 4.83134 46.084C4.20901 45.7699 3.6414 45.358 3.15024 44.8641C2.65197 44.376 2.23714 43.8099 1.92219 43.1883C1.60376 42.5626 1.3834 41.8919 1.26876 41.1996C1.14496 40.4558 1.07798 39.7036 1.0684 38.9496C1.06077 38.6966 1.05078 37.8539 1.05078 37.8539V10.1333C1.05078 10.1333 1.06142 9.30357 1.06846 9.05981C1.07764 8.30703 1.14423 7.55603 1.26765 6.81332C1.3825 6.11915 1.60304 5.44655 1.92164 4.8188C2.23543 4.19758 2.64796 3.63108 3.14322 3.14126C3.63793 2.64679 4.20736 2.23277 4.83075 1.9143C5.4574 1.59856 6.12808 1.37853 6.82031 1.26157C7.56663 1.13985 8.32105 1.07404 9.07724 1.0647L10.1631 1.05005H133.831L134.93 1.06529C135.68 1.07417 136.427 1.13939 137.167 1.2604C137.866 1.37882 138.544 1.60039 139.177 1.91782C140.426 2.55963 141.442 3.57504 142.083 4.82173C142.397 5.44514 142.614 6.11226 142.728 6.80044C142.852 7.54924 142.922 8.30614 142.937 9.06509C142.94 9.40493 142.94 9.76997 142.94 10.1333C142.95 10.5833 142.95 11.0116 142.95 11.4434V36.5578C142.95 36.9938 142.95 37.4192 142.94 37.8481C142.94 38.2383 142.94 38.5958 142.935 38.9637C142.921 39.7091 142.853 40.4525 142.73 41.1879C142.618 41.8852 142.398 42.5611 142.08 43.1919C141.763 43.8068 141.35 44.368 140.858 44.8547C140.366 45.3513 139.798 45.7656 139.174 46.0817C138.542 46.4009 137.865 46.6233 137.167 46.7415C136.423 46.8626 135.671 46.9281 134.917 46.9372C134.565 46.9454 134.196 46.9501 133.837 46.9501L132.533 46.9524L10.1625 46.9501Z" fill="black"/>
<path d="M29.8066 24.3596C29.8196 23.358 30.0864 22.3759 30.5822 21.5048C31.078 20.6336 31.7867 19.9017 32.6424 19.3771C32.0988 18.6029 31.3817 17.9658 30.548 17.5163C29.7142 17.0668 28.7869 16.8174 27.8396 16.7879C25.8189 16.5764 23.8598 17.9937 22.8301 17.9937C21.7804 17.9937 20.195 16.8089 18.4877 16.8439C17.3834 16.8795 16.3072 17.1997 15.3639 17.7734C14.4206 18.347 13.6424 19.1546 13.1052 20.1173C10.7778 24.1355 12.5138 30.0407 14.7432 33.2886C15.8586 34.8791 17.1622 36.6556 18.8679 36.5926C20.537 36.5236 21.1604 35.5312 23.1752 35.5312C25.1713 35.5312 25.7562 36.5926 27.4965 36.5525C29.2876 36.5236 30.4161 34.9551 31.4923 33.3496C32.2937 32.2163 32.9104 30.9639 33.3195 29.6386C32.279 29.1997 31.391 28.4651 30.7663 27.5263C30.1416 26.5876 29.8078 25.4862 29.8066 24.3596Z" fill="white"/>
<path d="M26.5201 14.6519C27.4966 13.4828 27.9778 11.9802 27.8613 10.4631C26.3693 10.6194 24.9911 11.3305 24.0014 12.4547C23.5174 13.0039 23.1468 13.6428 22.9106 14.3349C22.6745 15.027 22.5774 15.7588 22.6251 16.4883C23.3713 16.496 24.1096 16.3347 24.7843 16.0166C25.459 15.6985 26.0525 15.2319 26.5201 14.6519Z" fill="white"/>
<path d="M50.9062 32.5667H45.2102L43.8423 36.5945H41.4297L46.8249 21.6929H49.3315L54.7267 36.5945H52.2729L50.9062 32.5667ZM45.8001 30.7081H50.3152L48.0894 24.1714H48.0271L45.8001 30.7081Z" fill="white"/>
<path d="M66.378 31.1625C66.378 34.5387 64.5659 36.7078 61.8313 36.7078C61.1385 36.7439 60.4496 36.5848 59.8434 36.2487C59.2371 35.9125 58.7381 35.4129 58.4033 34.807H58.3516V40.1883H56.1152V25.7297H58.2799V27.5367H58.3211C58.6712 26.9338 59.1787 26.4367 59.7895 26.0985C60.4004 25.7603 61.0918 25.5936 61.7901 25.616C64.5553 25.616 66.378 27.7957 66.378 31.1625ZM64.0794 31.1625C64.0794 28.9629 62.9394 27.5168 61.2002 27.5168C59.4915 27.5168 58.3422 28.9934 58.3422 31.1625C58.3422 33.3516 59.4915 34.8176 61.2002 34.8176C62.9395 34.8176 64.0794 33.382 64.0794 31.1625Z" fill="white"/>
<path d="M78.3702 31.1625C78.3702 34.5387 76.5581 36.7078 73.8235 36.7078C73.1307 36.7439 72.4418 36.5848 71.8356 36.2487C71.2293 35.9125 70.7302 35.4129 70.3955 34.807H70.3438V40.1883H68.1074V25.7297H70.2721V27.5367H70.3132C70.6633 26.9338 71.1708 26.4367 71.7817 26.0985C72.3926 25.7603 73.0839 25.5936 73.7823 25.616C76.5475 25.616 78.3702 27.7957 78.3702 31.1625ZM76.0715 31.1625C76.0715 28.9629 74.9316 27.5168 73.1924 27.5168C71.4837 27.5168 70.3344 28.9934 70.3344 31.1625C70.3344 33.3516 71.4837 34.8176 73.1924 34.8176C74.9316 34.8176 76.0715 33.382 76.0715 31.1625H76.0715Z" fill="white"/>
<path d="M86.2951 32.4424C86.4608 33.9202 87.9004 34.8904 89.8676 34.8904C91.7526 34.8904 93.1087 33.9201 93.1087 32.5877C93.1087 31.4311 92.2908 30.7385 90.3541 30.2639L88.4175 29.7986C85.6735 29.1377 84.3996 27.858 84.3996 25.7814C84.3996 23.2104 86.6465 21.4443 89.8371 21.4443C92.9947 21.4443 95.1594 23.2104 95.2323 25.7814H92.9747C92.8396 24.2943 91.6068 23.3967 89.8053 23.3967C88.0038 23.3967 86.771 24.3049 86.771 25.6268C86.771 26.6803 87.5584 27.3002 89.4845 27.7748L91.1309 28.1779C94.1969 28.9009 95.4708 30.1291 95.4708 32.3088C95.4708 35.0966 93.2438 36.8427 89.7019 36.8427C86.3879 36.8427 84.1504 35.1377 84.0059 32.4423L86.2951 32.4424Z" fill="white"/>
<path d="M100.298 23.1592V25.7303H102.37V27.4963H100.298V33.4857C100.298 34.4162 100.713 34.8498 101.623 34.8498C101.869 34.8455 102.115 34.8283 102.359 34.7982V36.5537C101.95 36.63 101.533 36.6645 101.117 36.6568C98.9111 36.6568 98.0509 35.8306 98.0509 33.7236V27.4963H96.4668V25.7303H98.0509V23.1592H100.298Z" fill="white"/>
<path d="M103.568 31.1626C103.568 27.7442 105.587 25.5962 108.736 25.5962C111.894 25.5962 113.904 27.7442 113.904 31.1626C113.904 34.5903 111.905 36.729 108.736 36.729C105.567 36.729 103.568 34.5903 103.568 31.1626ZM111.625 31.1626C111.625 28.8177 110.548 27.4337 108.736 27.4337C106.923 27.4337 105.847 28.8282 105.847 31.1626C105.847 33.5169 106.923 34.8903 108.736 34.8903C110.548 34.8903 111.625 33.5169 111.625 31.1626H111.625Z" fill="white"/>
<path d="M115.748 25.7306H117.881V27.5798H117.933C118.077 27.0022 118.416 26.4918 118.894 26.1344C119.371 25.7769 119.957 25.5942 120.553 25.6169C120.811 25.616 121.068 25.6439 121.32 25.7001V27.786C120.994 27.6869 120.655 27.6414 120.315 27.6513C119.99 27.6381 119.666 27.6952 119.365 27.8187C119.065 27.9422 118.794 28.129 118.573 28.3665C118.352 28.604 118.184 28.8864 118.083 29.1944C117.981 29.5024 117.948 29.8287 117.984 30.1509V36.595H115.748L115.748 25.7306Z" fill="white"/>
<path d="M131.631 33.4032C131.33 35.3755 129.404 36.729 126.939 36.729C123.77 36.729 121.803 34.6114 121.803 31.2142C121.803 27.8064 123.781 25.5962 126.845 25.5962C129.86 25.5962 131.755 27.661 131.755 30.9552V31.7192H124.06V31.854C124.025 32.2538 124.075 32.6566 124.207 33.0357C124.34 33.4147 124.552 33.7612 124.829 34.0523C125.106 34.3433 125.443 34.5722 125.815 34.7238C126.188 34.8754 126.589 34.9461 126.991 34.9313C127.52 34.9807 128.05 34.8587 128.503 34.5833C128.957 34.308 129.309 33.8941 129.507 33.4032L131.631 33.4032ZM124.071 30.1606H129.518C129.538 29.8011 129.483 29.4414 129.357 29.1039C129.231 28.7665 129.037 28.4586 128.786 28.1997C128.535 27.9408 128.233 27.7364 127.899 27.5993C127.565 27.4622 127.206 27.3955 126.845 27.4032C126.481 27.4011 126.12 27.4708 125.783 27.6085C125.446 27.7462 125.14 27.9491 124.882 28.2055C124.624 28.4618 124.419 28.7666 124.28 29.1022C124.141 29.4377 124.07 29.7975 124.071 30.1607V30.1606Z" fill="white"/>
<path d="M45.5194 10.4783C45.9882 10.4448 46.4587 10.5154 46.8969 10.6851C47.335 10.8549 47.7299 11.1194 48.0531 11.4598C48.3764 11.8001 48.6198 12.2078 48.7659 12.6533C48.912 13.0988 48.9571 13.5711 48.898 14.0361C48.898 16.3236 47.6582 17.6385 45.5194 17.6385H42.9258V10.4783H45.5194ZM44.041 16.6259H45.3948C45.7298 16.6459 46.0651 16.5911 46.3762 16.4656C46.6873 16.3401 46.9665 16.1469 47.1933 15.9002C47.4201 15.6536 47.5889 15.3596 47.6874 15.0396C47.7859 14.7197 47.8117 14.3818 47.7628 14.0507C47.8081 13.7209 47.7798 13.3852 47.6798 13.0676C47.5797 12.75 47.4105 12.4584 47.1842 12.2137C46.9579 11.969 46.6801 11.7772 46.3707 11.6521C46.0614 11.527 45.7281 11.4717 45.3948 11.4902H44.041V16.6259Z" fill="white"/>
<path d="M50.1566 14.9343C50.1226 14.5792 50.1633 14.2209 50.2762 13.8824C50.3891 13.5439 50.5718 13.2327 50.8124 12.9687C51.053 12.7048 51.3462 12.4938 51.6734 12.3495C52.0005 12.2052 52.3543 12.1306 52.712 12.1306C53.0697 12.1306 53.4235 12.2052 53.7507 12.3495C54.0778 12.4938 54.3711 12.7048 54.6117 12.9687C54.8523 13.2327 55.0349 13.5439 55.1478 13.8824C55.2608 14.2209 55.3015 14.5792 55.2674 14.9343C55.3021 15.2897 55.2619 15.6485 55.1493 15.9875C55.0366 16.3266 54.8541 16.6384 54.6135 16.9029C54.3728 17.1673 54.0793 17.3787 53.7518 17.5234C53.4244 17.668 53.0702 17.7427 52.712 17.7427C52.3539 17.7427 51.9997 17.668 51.6722 17.5234C51.3447 17.3787 51.0513 17.1673 50.8106 16.9029C50.5699 16.6384 50.3874 16.3266 50.2748 15.9875C50.1622 15.6485 50.1219 15.2897 50.1566 14.9343ZM54.1675 14.9343C54.1675 13.763 53.6398 13.078 52.7138 13.078C51.7842 13.078 51.2613 13.763 51.2613 14.9343C51.2613 16.1149 51.7843 16.7946 52.7138 16.7946C53.6398 16.7946 54.1675 16.1102 54.1675 14.9343H54.1675Z" fill="white"/>
<path d="M62.0626 17.6386H60.9532L59.8333 13.6589H59.7487L58.6334 17.6386H57.5346L56.041 12.2351H57.1257L58.0964 16.3583H58.1763L59.2904 12.2351H60.3163L61.4303 16.3583H61.5149L62.4809 12.2351H63.5503L62.0626 17.6386Z" fill="white"/>
<path d="M64.8066 12.2349H65.8361V13.0933H65.916C66.0516 12.785 66.2802 12.5265 66.5701 12.3539C66.8599 12.1814 67.1966 12.1033 67.533 12.1306C67.7967 12.1108 68.0614 12.1504 68.3076 12.2466C68.5538 12.3427 68.7752 12.4928 68.9553 12.6858C69.1354 12.8788 69.2697 13.1098 69.3482 13.3616C69.4266 13.6133 69.4473 13.8795 69.4086 14.1403V17.6383H68.3392V14.4081C68.3392 13.5398 67.9608 13.1079 67.1699 13.1079C66.9909 13.0996 66.8122 13.13 66.6461 13.197C66.4799 13.264 66.3303 13.366 66.2074 13.4961C66.0845 13.6261 65.9913 13.7811 65.9341 13.9505C65.8769 14.1199 65.8571 14.2995 65.876 14.4772V17.6384H64.8066L64.8066 12.2349Z" fill="white"/>
<path d="M71.1133 10.1252H72.1827V17.6381H71.1133V10.1252Z" fill="white"/>
<path d="M73.6683 14.9344C73.6343 14.5792 73.675 14.2209 73.788 13.8824C73.9009 13.544 74.0836 13.2327 74.3242 12.9687C74.5648 12.7048 74.8581 12.4938 75.1853 12.3495C75.5125 12.2052 75.8663 12.1306 76.224 12.1306C76.5817 12.1306 76.9355 12.2052 77.2627 12.3495C77.5899 12.4938 77.8832 12.7048 78.1238 12.9687C78.3644 13.2327 78.5471 13.544 78.66 13.8824C78.773 14.2209 78.8137 14.5792 78.7797 14.9344C78.8144 15.2899 78.7741 15.6486 78.6614 15.9877C78.5487 16.3267 78.3662 16.6385 78.1255 16.903C77.8848 17.1674 77.5913 17.3788 77.2638 17.5234C76.9364 17.6681 76.5822 17.7428 76.224 17.7428C75.8658 17.7428 75.5116 17.6681 75.1842 17.5234C74.8567 17.3788 74.5632 17.1674 74.3225 16.903C74.0818 16.6385 73.8993 16.3267 73.7866 15.9877C73.6739 15.6486 73.6336 15.2899 73.6683 14.9344ZM77.6791 14.9344C77.6791 13.7631 77.1515 13.0781 76.2255 13.0781C75.2959 13.0781 74.773 13.7631 74.773 14.9344C74.773 16.1151 75.2959 16.7947 76.2255 16.7947C77.1515 16.7947 77.6791 16.1103 77.6791 14.9344H77.6791Z" fill="white"/>
<path d="M79.9062 16.1103C79.9062 15.1376 80.6325 14.5769 81.9216 14.4972L83.3894 14.4128V13.9464C83.3894 13.3757 83.011 13.0535 82.2801 13.0535C81.6831 13.0535 81.2694 13.272 81.1507 13.6541H80.1154C80.2247 12.7259 81.1002 12.1306 82.3294 12.1306C83.6879 12.1306 84.4541 12.805 84.4541 13.9464V17.6384H83.4247V16.8791H83.3401C83.1683 17.1514 82.9272 17.3735 82.6412 17.5226C82.3553 17.6716 82.0348 17.7423 81.7125 17.7274C81.485 17.751 81.2551 17.7268 81.0376 17.6564C80.82 17.586 80.6197 17.4709 80.4496 17.3185C80.2794 17.1661 80.1431 16.9799 80.0495 16.7718C79.956 16.5637 79.9071 16.3384 79.9062 16.1103ZM83.3894 15.6486V15.1968L82.0662 15.2812C81.32 15.331 80.9815 15.5841 80.9815 16.0605C80.9815 16.5468 81.4046 16.8298 81.9863 16.8298C82.1568 16.847 82.329 16.8299 82.4926 16.7793C82.6563 16.7288 82.8081 16.646 82.939 16.5358C83.0699 16.4256 83.1772 16.2903 83.2546 16.1378C83.332 15.9854 83.3779 15.819 83.3894 15.6486Z" fill="white"/>
<path d="M85.8594 14.9341C85.8594 13.2266 86.7396 12.145 88.1086 12.145C88.4473 12.1294 88.7834 12.2103 89.0776 12.3782C89.3719 12.5461 89.6121 12.794 89.7703 13.093H89.8502V10.1252H90.9196V17.6381H89.8949V16.7844H89.8103C89.6399 17.0814 89.3912 17.3262 89.0913 17.4924C88.7914 17.6586 88.4515 17.7398 88.1086 17.7272C86.7302 17.7272 85.8594 16.6456 85.8594 14.9341ZM86.9641 14.9341C86.9641 16.0801 87.5058 16.7698 88.4119 16.7698C89.3132 16.7698 89.8702 16.0702 89.8702 14.9387C89.8702 13.8126 89.3074 13.103 88.4119 13.103C87.5117 13.103 86.964 13.7973 86.964 14.9341H86.9641Z" fill="white"/>
<path d="M95.3441 14.9343C95.3101 14.5792 95.3508 14.2209 95.4637 13.8824C95.5766 13.5439 95.7593 13.2327 95.9999 12.9687C96.2405 12.7048 96.5337 12.4938 96.8609 12.3495C97.188 12.2052 97.5418 12.1306 97.8995 12.1306C98.2572 12.1306 98.611 12.2052 98.9381 12.3495C99.2653 12.4938 99.5585 12.7048 99.7991 12.9687C100.04 13.2327 100.222 13.5439 100.335 13.8824C100.448 14.2209 100.489 14.5792 100.455 14.9343C100.49 15.2897 100.449 15.6485 100.337 15.9875C100.224 16.3266 100.042 16.6384 99.8009 16.9029C99.5603 17.1673 99.2668 17.3787 98.9393 17.5234C98.6118 17.668 98.2577 17.7427 97.8995 17.7427C97.5414 17.7427 97.1872 17.668 96.8597 17.5234C96.5322 17.3787 96.2387 17.1673 95.9981 16.9029C95.7574 16.6384 95.5749 16.3266 95.4623 15.9875C95.3497 15.6485 95.3094 15.2897 95.3441 14.9343ZM99.3549 14.9343C99.3549 13.763 98.8273 13.078 97.9013 13.078C96.9717 13.078 96.4488 13.763 96.4488 14.9343C96.4488 16.1149 96.9718 16.7946 97.9013 16.7946C98.8273 16.7946 99.3549 16.1102 99.3549 14.9343Z" fill="white"/>
<path d="M101.889 12.2349H102.918V13.0933H102.998C103.134 12.785 103.362 12.5265 103.652 12.3539C103.942 12.1814 104.279 12.1033 104.615 12.1306C104.879 12.1108 105.143 12.1504 105.39 12.2466C105.636 12.3427 105.857 12.4928 106.037 12.6858C106.217 12.8788 106.352 13.1098 106.43 13.3616C106.509 13.6133 106.529 13.8795 106.491 14.1403V17.6383H105.421V14.4081C105.421 13.5398 105.043 13.1079 104.252 13.1079C104.073 13.0996 103.894 13.13 103.728 13.197C103.562 13.264 103.412 13.366 103.289 13.4961C103.167 13.6261 103.073 13.7811 103.016 13.9505C102.959 14.1199 102.939 14.2995 102.958 14.4772V17.6384H101.889V12.2349Z" fill="white"/>
<path d="M112.534 10.8892V12.2591H113.708V13.1573H112.534V15.9358C112.534 16.5019 112.768 16.7497 113.301 16.7497C113.437 16.7493 113.573 16.7411 113.708 16.7251V17.6134C113.516 17.6476 113.322 17.6659 113.127 17.6679C111.937 17.6679 111.464 17.2507 111.464 16.2089V13.1573H110.604V12.259H111.464V10.8892H112.534Z" fill="white"/>
<path d="M115.168 10.1252H116.228V13.103H116.313C116.455 12.7918 116.69 12.5319 116.985 12.3587C117.281 12.1855 117.623 12.1074 117.965 12.135C118.227 12.1208 118.489 12.1645 118.733 12.2629C118.976 12.3614 119.195 12.5122 119.373 12.7046C119.551 12.897 119.685 13.1262 119.764 13.376C119.843 13.6258 119.866 13.8899 119.831 14.1495V17.6381H118.76V14.4125C118.76 13.5495 118.357 13.1123 117.602 13.1123C117.418 13.0973 117.233 13.1225 117.06 13.1862C116.887 13.2498 116.73 13.3504 116.6 13.4809C116.47 13.6114 116.37 13.7686 116.308 13.9416C116.245 14.1146 116.221 14.2991 116.237 14.4823V17.6381H115.168L115.168 10.1252Z" fill="white"/>
<path d="M126.066 16.1795C125.92 16.6734 125.605 17.1006 125.176 17.3863C124.747 17.6721 124.231 17.7983 123.718 17.7428C123.361 17.7522 123.006 17.684 122.678 17.543C122.35 17.4019 122.057 17.1914 121.819 16.9261C121.58 16.6607 121.403 16.3468 121.299 16.0063C121.194 15.6657 121.166 15.3065 121.215 14.9538C121.167 14.5999 121.196 14.24 121.3 13.8984C121.404 13.5568 121.581 13.2414 121.818 12.9737C122.055 12.7061 122.346 12.4923 122.673 12.3468C123 12.2014 123.355 12.1277 123.713 12.1307C125.221 12.1307 126.13 13.1579 126.13 14.8547V15.2268H122.304V15.2866C122.287 15.4849 122.312 15.6845 122.377 15.8726C122.442 16.0607 122.546 16.2331 122.682 16.3789C122.818 16.5246 122.983 16.6404 123.166 16.7189C123.35 16.7974 123.547 16.8368 123.747 16.8346C124.003 16.8652 124.262 16.8193 124.492 16.7026C124.721 16.586 124.911 16.4039 125.036 16.1795L126.066 16.1795ZM122.304 14.4381H125.041C125.054 14.2568 125.03 14.0746 124.968 13.9034C124.907 13.7321 124.81 13.5755 124.685 13.4437C124.559 13.3119 124.407 13.2077 124.239 13.1379C124.07 13.0681 123.889 13.0342 123.707 13.0383C123.522 13.036 123.338 13.0706 123.167 13.1402C122.996 13.2097 122.84 13.3127 122.709 13.4432C122.579 13.5736 122.475 13.7289 122.406 13.8998C122.336 14.0706 122.301 14.2537 122.304 14.4381H122.304Z" fill="white"/>
</g>
<defs>
<clipPath id="clip0_2_605">
<rect width="144" height="48" fill="white"/>
</clipPath>
</defs>
</svg>
