<svg width="32" height="40" viewBox="0 0 32 40" fill="none" xmlns="http://www.w3.org/2000/svg">
<path d="M28.14 16H26V10C26 10 26 0 16 0C6 0 6 10 6 10V16H3.86C2.83626 16 1.85446 16.4067 1.13057 17.1306C0.406678 17.8545 0 18.8363 0 19.86V36.16C0.00528642 37.1803 0.414296 38.1569 1.13761 38.8765C1.86093 39.5961 2.83972 40 3.86 40H28.14C29.1637 40 30.1455 39.5933 30.8694 38.8694C31.5933 38.1455 32 37.1637 32 36.14V19.86C32 18.8363 31.5933 17.8545 30.8694 17.1306C30.1455 16.4067 29.1637 16 28.14 16ZM10 11C10 8 10 4 16 4C22 4 22 8 22 11V16H10V11ZM16 32C15.2089 32 14.4355 31.7654 13.7777 31.3259C13.1199 30.8864 12.6072 30.2616 12.3045 29.5307C12.0017 28.7998 11.9225 27.9956 12.0769 27.2196C12.2312 26.4437 12.6122 25.731 13.1716 25.1716C13.731 24.6122 14.4437 24.2312 15.2196 24.0769C15.9956 23.9225 16.7998 24.0017 17.5307 24.3045C18.2616 24.6072 18.8864 25.1199 19.3259 25.7777C19.7654 26.4355 20 27.2089 20 28C20 29.0609 19.5786 30.0783 18.8284 30.8284C18.0783 31.5786 17.0609 32 16 32Z" fill="#FFC369"/>
</svg>
